<svg xmlns="http://www.w3.org/2000/svg" xmlns:xlink="http://www.w3.org/1999/xlink" width="500" zoomAndPan="magnify" viewBox="0 0 375 374.999991" height="500" preserveAspectRatio="xMidYMid meet" version="1.0"><defs><g/><clipPath id="83a90a5e41"><path d="M 125 18.074219 L 353.5 18.074219 L 353.5 138 L 125 138 Z M 125 18.074219 " clip-rule="nonzero"/></clipPath><clipPath id="f9adc22846"><path d="M 21.25 85 L 312 85 L 312 357 L 21.25 357 Z M 21.25 85 " clip-rule="nonzero"/></clipPath></defs><rect x="-37.5" width="450" fill="#ffffff" y="-37.499999" height="449.999989" fill-opacity="1"/><rect x="-37.5" width="450" fill="#000000" y="-37.499999" height="449.999989" fill-opacity="1"/><g fill="#ffffff" fill-opacity="1"><g transform="translate(277.093864, 373.636388)"><g><path d="M 0.203125 -3.140625 L 0.203125 -3.265625 L 1.625 -3.265625 C 2.039062 -3.265625 2.359375 -3.144531 2.578125 -2.90625 C 2.796875 -2.664062 2.90625 -2.296875 2.90625 -1.796875 L 2.90625 -1.484375 C 2.90625 -0.984375 2.796875 -0.609375 2.578125 -0.359375 C 2.359375 -0.117188 2.039062 0 1.625 0 L 0.203125 0 L 0.203125 -0.140625 L 0.46875 -0.171875 C 0.519531 -0.171875 0.550781 -0.179688 0.5625 -0.203125 C 0.570312 -0.222656 0.578125 -0.289062 0.578125 -0.40625 L 0.578125 -2.875 C 0.578125 -2.976562 0.570312 -3.039062 0.5625 -3.0625 C 0.550781 -3.082031 0.519531 -3.097656 0.46875 -3.109375 Z M 1.609375 -3.109375 L 1.15625 -3.109375 L 1.15625 -0.171875 L 1.609375 -0.171875 C 1.765625 -0.171875 1.890625 -0.195312 1.984375 -0.25 C 2.085938 -0.3125 2.160156 -0.414062 2.203125 -0.5625 C 2.253906 -0.71875 2.28125 -0.945312 2.28125 -1.25 L 2.28125 -2.03125 C 2.28125 -2.320312 2.253906 -2.546875 2.203125 -2.703125 C 2.160156 -2.859375 2.085938 -2.960938 1.984375 -3.015625 C 1.890625 -3.078125 1.765625 -3.109375 1.609375 -3.109375 Z M 1.609375 -3.109375 "/></g></g></g><g fill="#ffffff" fill-opacity="1"><g transform="translate(282.092036, 373.636388)"><g><path d="M 2.453125 -0.828125 L 2.59375 -0.828125 L 2.59375 0 L 0.203125 0 L 0.203125 -0.140625 L 0.46875 -0.171875 C 0.519531 -0.171875 0.550781 -0.179688 0.5625 -0.203125 C 0.570312 -0.222656 0.578125 -0.289062 0.578125 -0.40625 L 0.578125 -2.875 C 0.578125 -2.976562 0.570312 -3.039062 0.5625 -3.0625 C 0.550781 -3.082031 0.519531 -3.097656 0.46875 -3.109375 L 0.203125 -3.140625 L 0.203125 -3.265625 L 2.546875 -3.265625 L 2.546875 -2.4375 L 2.40625 -2.4375 L 2.25 -2.984375 C 2.238281 -3.015625 2.226562 -3.039062 2.21875 -3.0625 C 2.207031 -3.082031 2.1875 -3.09375 2.15625 -3.09375 C 2.125 -3.101562 2.070312 -3.109375 2 -3.109375 L 1.15625 -3.109375 L 1.15625 -1.734375 L 1.703125 -1.734375 C 1.773438 -1.734375 1.828125 -1.734375 1.859375 -1.734375 C 1.898438 -1.742188 1.925781 -1.753906 1.9375 -1.765625 C 1.945312 -1.785156 1.957031 -1.816406 1.96875 -1.859375 L 2.0625 -2.25 L 2.203125 -2.25 L 2.203125 -1.046875 L 2.0625 -1.046875 L 1.96875 -1.4375 C 1.957031 -1.476562 1.945312 -1.503906 1.9375 -1.515625 C 1.925781 -1.535156 1.898438 -1.546875 1.859375 -1.546875 C 1.828125 -1.554688 1.773438 -1.5625 1.703125 -1.5625 L 1.15625 -1.5625 L 1.15625 -0.171875 L 2.046875 -0.171875 C 2.117188 -0.171875 2.171875 -0.171875 2.203125 -0.171875 C 2.234375 -0.179688 2.253906 -0.191406 2.265625 -0.203125 C 2.273438 -0.222656 2.285156 -0.253906 2.296875 -0.296875 Z M 2.453125 -0.828125 "/></g></g></g><g fill="#ffffff" fill-opacity="1"><g transform="translate(286.772799, 373.636388)"><g><path d="M 0.0625 -3.265625 L 2.703125 -3.265625 L 2.703125 -2.4375 L 2.5625 -2.4375 L 2.421875 -2.984375 C 2.410156 -3.023438 2.398438 -3.050781 2.390625 -3.0625 C 2.378906 -3.082031 2.351562 -3.09375 2.3125 -3.09375 C 2.28125 -3.101562 2.226562 -3.109375 2.15625 -3.109375 L 1.671875 -3.109375 L 1.671875 -0.40625 C 1.671875 -0.289062 1.675781 -0.222656 1.6875 -0.203125 C 1.695312 -0.179688 1.726562 -0.171875 1.78125 -0.171875 L 2.046875 -0.140625 L 2.046875 0 L 0.71875 0 L 0.71875 -0.140625 L 0.984375 -0.171875 C 1.035156 -0.171875 1.066406 -0.179688 1.078125 -0.203125 C 1.085938 -0.222656 1.09375 -0.289062 1.09375 -0.40625 L 1.09375 -3.109375 L 0.609375 -3.109375 C 0.535156 -3.109375 0.476562 -3.101562 0.4375 -3.09375 C 0.40625 -3.09375 0.382812 -3.082031 0.375 -3.0625 C 0.363281 -3.050781 0.351562 -3.023438 0.34375 -2.984375 L 0.1875 -2.4375 L 0.0625 -2.4375 Z M 0.0625 -3.265625 "/></g></g></g><g fill="#ffffff" fill-opacity="1"><g transform="translate(291.314093, 373.636388)"><g><path d="M 2.453125 -0.828125 L 2.59375 -0.828125 L 2.59375 0 L 0.203125 0 L 0.203125 -0.140625 L 0.46875 -0.171875 C 0.519531 -0.171875 0.550781 -0.179688 0.5625 -0.203125 C 0.570312 -0.222656 0.578125 -0.289062 0.578125 -0.40625 L 0.578125 -2.875 C 0.578125 -2.976562 0.570312 -3.039062 0.5625 -3.0625 C 0.550781 -3.082031 0.519531 -3.097656 0.46875 -3.109375 L 0.203125 -3.140625 L 0.203125 -3.265625 L 2.546875 -3.265625 L 2.546875 -2.4375 L 2.40625 -2.4375 L 2.25 -2.984375 C 2.238281 -3.015625 2.226562 -3.039062 2.21875 -3.0625 C 2.207031 -3.082031 2.1875 -3.09375 2.15625 -3.09375 C 2.125 -3.101562 2.070312 -3.109375 2 -3.109375 L 1.15625 -3.109375 L 1.15625 -1.734375 L 1.703125 -1.734375 C 1.773438 -1.734375 1.828125 -1.734375 1.859375 -1.734375 C 1.898438 -1.742188 1.925781 -1.753906 1.9375 -1.765625 C 1.945312 -1.785156 1.957031 -1.816406 1.96875 -1.859375 L 2.0625 -2.25 L 2.203125 -2.25 L 2.203125 -1.046875 L 2.0625 -1.046875 L 1.96875 -1.4375 C 1.957031 -1.476562 1.945312 -1.503906 1.9375 -1.515625 C 1.925781 -1.535156 1.898438 -1.546875 1.859375 -1.546875 C 1.828125 -1.554688 1.773438 -1.5625 1.703125 -1.5625 L 1.15625 -1.5625 L 1.15625 -0.171875 L 2.046875 -0.171875 C 2.117188 -0.171875 2.171875 -0.171875 2.203125 -0.171875 C 2.234375 -0.179688 2.253906 -0.191406 2.265625 -0.203125 C 2.273438 -0.222656 2.285156 -0.253906 2.296875 -0.296875 Z M 2.453125 -0.828125 "/></g></g></g><g fill="#ffffff" fill-opacity="1"><g transform="translate(295.994856, 373.636388)"><g><path d="M 1.6875 0.046875 C 1.394531 0.046875 1.144531 -0.015625 0.9375 -0.140625 C 0.738281 -0.265625 0.582031 -0.441406 0.46875 -0.671875 C 0.363281 -0.910156 0.3125 -1.179688 0.3125 -1.484375 L 0.3125 -1.796875 C 0.3125 -2.097656 0.359375 -2.363281 0.453125 -2.59375 C 0.546875 -2.820312 0.6875 -3 0.875 -3.125 C 1.070312 -3.257812 1.3125 -3.328125 1.59375 -3.328125 C 1.84375 -3.328125 2.046875 -3.273438 2.203125 -3.171875 C 2.367188 -3.078125 2.488281 -2.953125 2.5625 -2.796875 C 2.644531 -2.640625 2.679688 -2.472656 2.671875 -2.296875 L 2.109375 -2.15625 C 2.140625 -2.476562 2.101562 -2.722656 2 -2.890625 C 1.90625 -3.066406 1.765625 -3.15625 1.578125 -3.15625 C 1.367188 -3.15625 1.207031 -3.066406 1.09375 -2.890625 C 0.988281 -2.710938 0.9375 -2.425781 0.9375 -2.03125 L 0.9375 -1.25 C 0.9375 -0.851562 1 -0.566406 1.125 -0.390625 C 1.25 -0.210938 1.4375 -0.125 1.6875 -0.125 C 1.800781 -0.125 1.898438 -0.140625 1.984375 -0.171875 C 2.078125 -0.210938 2.15625 -0.28125 2.21875 -0.375 C 2.28125 -0.46875 2.320312 -0.601562 2.34375 -0.78125 L 2.6875 -0.6875 C 2.644531 -0.507812 2.570312 -0.363281 2.46875 -0.25 C 2.363281 -0.144531 2.242188 -0.0664062 2.109375 -0.015625 C 1.984375 0.0234375 1.84375 0.046875 1.6875 0.046875 Z M 1.6875 0.046875 "/></g></g></g><g fill="#ffffff" fill-opacity="1"><g transform="translate(300.646764, 373.636388)"><g><path d="M 0.0625 -3.265625 L 2.703125 -3.265625 L 2.703125 -2.4375 L 2.5625 -2.4375 L 2.421875 -2.984375 C 2.410156 -3.023438 2.398438 -3.050781 2.390625 -3.0625 C 2.378906 -3.082031 2.351562 -3.09375 2.3125 -3.09375 C 2.28125 -3.101562 2.226562 -3.109375 2.15625 -3.109375 L 1.671875 -3.109375 L 1.671875 -0.40625 C 1.671875 -0.289062 1.675781 -0.222656 1.6875 -0.203125 C 1.695312 -0.179688 1.726562 -0.171875 1.78125 -0.171875 L 2.046875 -0.140625 L 2.046875 0 L 0.71875 0 L 0.71875 -0.140625 L 0.984375 -0.171875 C 1.035156 -0.171875 1.066406 -0.179688 1.078125 -0.203125 C 1.085938 -0.222656 1.09375 -0.289062 1.09375 -0.40625 L 1.09375 -3.109375 L 0.609375 -3.109375 C 0.535156 -3.109375 0.476562 -3.101562 0.4375 -3.09375 C 0.40625 -3.09375 0.382812 -3.082031 0.375 -3.0625 C 0.363281 -3.050781 0.351562 -3.023438 0.34375 -2.984375 L 0.1875 -2.4375 L 0.0625 -2.4375 Z M 0.0625 -3.265625 "/></g></g></g><g fill="#ffffff" fill-opacity="1"><g transform="translate(305.188059, 373.636388)"><g><path d="M 0.203125 -3.140625 L 0.203125 -3.265625 L 1.53125 -3.265625 L 1.53125 -3.140625 L 1.265625 -3.109375 C 1.210938 -3.097656 1.179688 -3.082031 1.171875 -3.0625 C 1.160156 -3.039062 1.15625 -2.976562 1.15625 -2.875 L 1.15625 -0.40625 C 1.15625 -0.289062 1.160156 -0.222656 1.171875 -0.203125 C 1.179688 -0.179688 1.210938 -0.171875 1.265625 -0.171875 L 1.53125 -0.140625 L 1.53125 0 L 0.203125 0 L 0.203125 -0.140625 L 0.46875 -0.171875 C 0.519531 -0.171875 0.550781 -0.179688 0.5625 -0.203125 C 0.570312 -0.222656 0.578125 -0.289062 0.578125 -0.40625 L 0.578125 -2.875 C 0.578125 -2.976562 0.570312 -3.039062 0.5625 -3.0625 C 0.550781 -3.082031 0.519531 -3.097656 0.46875 -3.109375 Z M 0.203125 -3.140625 "/></g></g></g><g fill="#ffffff" fill-opacity="1"><g transform="translate(308.700178, 373.636388)"><g><path d="M 2.921875 -1.796875 L 2.921875 -1.484375 C 2.921875 -0.992188 2.8125 -0.613281 2.59375 -0.34375 C 2.375 -0.0820312 2.050781 0.046875 1.625 0.046875 C 1.195312 0.046875 0.867188 -0.0820312 0.640625 -0.34375 C 0.421875 -0.613281 0.3125 -0.992188 0.3125 -1.484375 L 0.3125 -1.796875 C 0.3125 -2.285156 0.421875 -2.660156 0.640625 -2.921875 C 0.867188 -3.191406 1.195312 -3.328125 1.625 -3.328125 C 2.050781 -3.328125 2.375 -3.191406 2.59375 -2.921875 C 2.8125 -2.660156 2.921875 -2.285156 2.921875 -1.796875 Z M 2.3125 -2.03125 C 2.3125 -2.3125 2.285156 -2.53125 2.234375 -2.6875 C 2.191406 -2.851562 2.117188 -2.972656 2.015625 -3.046875 C 1.910156 -3.117188 1.78125 -3.15625 1.625 -3.15625 C 1.46875 -3.15625 1.335938 -3.117188 1.234375 -3.046875 C 1.128906 -2.972656 1.050781 -2.851562 1 -2.6875 C 0.957031 -2.53125 0.9375 -2.3125 0.9375 -2.03125 L 0.9375 -1.25 C 0.9375 -0.96875 0.957031 -0.742188 1 -0.578125 C 1.050781 -0.421875 1.128906 -0.304688 1.234375 -0.234375 C 1.335938 -0.160156 1.46875 -0.125 1.625 -0.125 C 1.78125 -0.125 1.910156 -0.160156 2.015625 -0.234375 C 2.117188 -0.304688 2.191406 -0.421875 2.234375 -0.578125 C 2.285156 -0.742188 2.3125 -0.96875 2.3125 -1.25 Z M 2.3125 -2.03125 "/></g></g></g><g fill="#ffffff" fill-opacity="1"><g transform="translate(313.722395, 373.636388)"><g><path d="M 2.234375 -3.140625 L 2.234375 -3.265625 L 3.171875 -3.265625 L 3.171875 -3.140625 L 2.90625 -3.109375 C 2.851562 -3.097656 2.820312 -3.082031 2.8125 -3.0625 C 2.800781 -3.039062 2.796875 -2.976562 2.796875 -2.875 L 2.796875 0 L 2.53125 0 L 0.765625 -2.859375 L 0.765625 -0.40625 C 0.765625 -0.289062 0.769531 -0.222656 0.78125 -0.203125 C 0.789062 -0.179688 0.820312 -0.171875 0.875 -0.171875 L 1.140625 -0.140625 L 1.140625 0 L 0.203125 0 L 0.203125 -0.140625 L 0.46875 -0.171875 C 0.519531 -0.171875 0.550781 -0.179688 0.5625 -0.203125 C 0.570312 -0.222656 0.578125 -0.289062 0.578125 -0.40625 L 0.578125 -2.875 C 0.578125 -2.976562 0.570312 -3.039062 0.5625 -3.0625 C 0.550781 -3.082031 0.519531 -3.097656 0.46875 -3.109375 L 0.203125 -3.140625 L 0.203125 -3.265625 L 1.171875 -3.265625 L 2.609375 -0.96875 L 2.609375 -2.875 C 2.609375 -2.976562 2.601562 -3.039062 2.59375 -3.0625 C 2.582031 -3.082031 2.550781 -3.097656 2.5 -3.109375 Z M 2.234375 -3.140625 "/></g></g></g><g clip-path="url(#83a90a5e41)"><path fill="#ffffff" d="M 199.226562 33.652344 L 311.914062 33.652344 C 326.195312 33.652344 337.890625 45.34375 337.890625 59.628906 C 337.890625 73.910156 326.199219 85.601562 311.914062 85.601562 C 260.035156 85.601562 208.15625 85.601562 156.273438 85.601562 L 156.273438 101.179688 C 208.15625 101.179688 260.035156 101.179688 311.914062 101.179688 C 334.773438 101.179688 353.46875 82.488281 353.46875 59.628906 C 353.46875 36.769531 334.773438 18.074219 311.914062 18.074219 L 162.117188 18.074219 C 150.8125 19.316406 140.816406 25.148438 134.078125 33.652344 C 128.460938 40.742188 125.097656 49.6875 125.097656 59.386719 C 125.097656 85.449219 125.097656 111.492188 125.097656 137.554688 L 140.675781 137.554688 C 140.675781 111.492188 140.675781 85.445312 140.675781 59.382812 C 140.675781 46.308594 150.460938 35.421875 163.082031 33.652344 C 172.796875 32.304688 189.058594 33.652344 199.226562 33.652344 Z M 199.226562 33.652344 " fill-opacity="1" fill-rule="evenodd"/></g><g clip-path="url(#f9adc22846)"><path fill="#ffffff" d="M 37.476562 159.886719 C 43.53125 164.632812 52.597656 168.550781 60.371094 168.550781 C 130.261719 168.550781 200.171875 168.550781 270.078125 168.550781 C 271.078125 168.550781 272.074219 168.605469 273.054688 168.710938 C 285.953125 170.214844 296.035156 181.242188 296.035156 194.507812 C 296.035156 208.808594 284.363281 220.484375 270.078125 220.484375 L 200.414062 220.484375 C 196.125 220.484375 192.625 224.003906 192.625 228.273438 L 192.625 315.335938 C 192.625 329.617188 180.929688 341.3125 166.648438 341.3125 C 152.367188 341.3125 140.671875 329.621094 140.671875 315.335938 C 140.671875 271.59375 140.671875 227.851562 140.671875 184.128906 L 125.09375 184.128906 C 125.09375 227.851562 125.09375 271.59375 125.09375 315.335938 C 125.09375 338.195312 143.789062 356.890625 166.648438 356.890625 C 189.507812 356.890625 208.203125 338.195312 208.203125 315.335938 L 208.203125 236.082031 L 270.074219 236.082031 C 292.917969 236.082031 311.628906 217.371094 311.628906 194.507812 C 311.628906 181.277344 305.34375 169.429688 295.613281 161.796875 C 289.558594 157.050781 280.492188 153.128906 272.71875 153.128906 C 202.828125 153.128906 132.917969 153.128906 63.011719 153.128906 C 62.011719 153.128906 61.015625 153.078125 60.019531 152.953125 C 47.140625 151.46875 37.039062 140.441406 37.039062 127.15625 C 37.039062 112.875 48.730469 101.179688 63.015625 101.179688 C 78.523438 101.179688 94.011719 101.179688 109.519531 101.179688 L 109.519531 85.601562 L 63.015625 85.601562 C 53.089844 85.601562 43.917969 89.136719 36.757812 95.019531 C 27.429688 102.652344 21.460938 114.238281 21.460938 127.15625 C 21.460938 139.988281 27.394531 151.992188 37.476562 159.886719 Z M 37.476562 159.886719 " fill-opacity="1" fill-rule="evenodd"/></g></svg>