<?xml version="1.0" standalone="no"?>
<!DOCTYPE svg PUBLIC "-//W3C//DTD SVG 20010904//EN"
 "http://www.w3.org/TR/2001/REC-SVG-20010904/DTD/svg10.dtd">
<svg version="1.0" xmlns="http://www.w3.org/2000/svg"
 width="678.000000pt" height="685.000000pt" viewBox="0 0 678.000000 685.000000"
 preserveAspectRatio="xMidYMid meet">
<metadata>
Created by potrace 1.16, written by Peter Selinger 2001-2019
</metadata>
<g transform="translate(0.000000,685.000000) scale(0.100000,-0.100000)"
fill="#000000" stroke="none">
<path d="M0 3415 l0 -3415 3390 0 3390 0 0 3415 0 3415 -3390 0 -3390 0 0
-3415z m4300 1129 c74 -22 152 -100 174 -174 34 -113 11 -206 -68 -286 -86
-86 -71 -84 -703 -84 l-543 0 0 50 0 50 528 0 c332 0 541 4 564 10 78 22 130
90 130 170 0 70 -34 124 -102 161 -33 18 -1033 27 -1092 9 -45 -13 -93 -52
-116 -94 -15 -27 -17 -70 -20 -319 l-3 -288 -47 3 -47 3 -3 284 c-3 337 1 355
82 437 86 85 64 82 677 83 461 1 543 -1 589 -15z m-1460 -494 l0 -50 -173 0
c-163 0 -177 -2 -218 -23 -113 -60 -122 -225 -16 -295 l41 -27 765 -5 c766 -5
766 -5 807 -27 92 -49 147 -126 160 -224 14 -102 -48 -217 -146 -273 l-55 -31
-247 -3 -247 -3 -3 -307 c-3 -293 -4 -309 -25 -347 -111 -206 -396 -207 -506
-1 -22 40 -22 47 -25 524 l-3 482 50 0 50 0 3 -462 c3 -432 4 -466 22 -501 42
-85 152 -119 236 -75 84 46 84 47 90 426 l5 334 24 19 c21 18 42 19 283 19
291 0 306 3 356 68 23 30 27 45 27 102 0 57 -4 72 -28 103 -58 76 -3 71 -857
77 -731 5 -767 6 -804 24 -50 25 -100 75 -128 129 -31 59 -31 184 -1 242 28
53 88 109 143 134 40 18 66 21 233 21 l187 0 0 -50z"/>
</g>
</svg>
